<svg width="38" height="31" viewBox="0 0 38 31" fill="none" xmlns="http://www.w3.org/2000/svg">
<path d="M38 3.67717C36.6026 4.29856 35.1014 4.71842 33.5232 4.9082C35.1516 3.93041 36.3699 2.3915 36.9507 0.578598C35.4208 1.49052 33.7464 2.13241 32.0003 2.47637C30.8261 1.21824 29.2708 0.384331 27.5759 0.104113C25.881 -0.176106 24.1414 0.113043 22.627 0.926667C21.1127 1.74029 19.9084 3.03287 19.2011 4.60372C18.4938 6.17457 18.3231 7.93581 18.7155 9.61399C15.6155 9.45779 12.5829 8.64923 9.8145 7.24078C7.04608 5.83233 4.60372 3.85546 2.64591 1.43847C1.97648 2.59729 1.59156 3.94084 1.59156 5.37172C1.59081 6.65984 1.90692 7.92824 2.51182 9.06436C3.11672 10.2005 3.99173 11.1692 5.05919 11.8846C3.82121 11.8451 2.61055 11.5094 1.52797 10.9055V11.0062C1.52784 12.8129 2.15059 14.5639 3.29054 15.9623C4.43049 17.3606 6.01743 18.3201 7.78208 18.6779C6.63366 18.9898 5.42961 19.0358 4.2609 18.8123C4.75878 20.3668 5.72861 21.7262 7.03461 22.7001C8.34062 23.674 9.91742 24.2137 11.5443 24.2436C8.7826 26.4192 5.37196 27.5993 1.86101 27.5941C1.23908 27.5942 0.617674 27.5578 0 27.4849C3.56382 29.7844 7.71236 31.0047 11.9493 31C26.2917 31 34.1324 19.0793 34.1324 8.74068C34.1324 8.40479 34.124 8.06554 34.109 7.72966C35.6341 6.62286 36.9505 5.25231 37.9967 3.6822L38 3.67717Z" fill="white"/>
</svg>
